<?xml version="1.0" ?><!DOCTYPE svg  PUBLIC '-//W3C//DTD SVG 1.1//EN'  'http://www.w3.org/Graphics/SVG/1.1/DTD/svg11.dtd'><svg enable-background="new 0 0 128 128" id="Слой_1" version="1.1" viewBox="0 0 128 128" xml:space="preserve" xmlns="http://www.w3.org/2000/svg" xmlns:xlink="http://www.w3.org/1999/xlink"><g><g opacity="0.3"><rect fill="#3EBBC4" height="4" width="4" x="114.5" y="102"/></g><g opacity="0.3"><rect fill="#3EBBC4" height="4" width="4" x="94.5" y="62"/></g><g opacity="0.3"><rect fill="#3EBBC4" height="4" width="4" x="34.5" y="92"/></g><g opacity="0.3"><rect fill="#3EBBC4" height="4" width="4" x="14.5" y="82"/></g><g><g opacity="0.3"><path d="M30,126H11.2l8.3-12.3c5.2-7.6,14.3-11.2,23.3-9.2l-0.9,3.9c-7.4-1.7-14.9,1.3-19.1,7.5l-4.1,6H30V126z" fill="#3EBBC4"/></g></g><g><g opacity="0.3"><path d="M114.4,126H98v-4h8.8l-2.4-3.5c-3.1-4.6-8.9-6.6-14.2-4.9l-1.2-3.8c7.1-2.2,14.6,0.4,18.7,6.5L114.4,126z     " fill="#3EBBC4"/></g></g><g><g><path d="M30,124" fill="#3EBBC4"/></g></g><path d="M99.1,122l-8.6-12.6c-1.8-2.7-4-5-6.5-7V91c0-6.6-5.4-12-12-12h-6l0-58.2c4.6-0.9,8-5,8-9.8V2H54v9   c0,4.8,3.4,8.9,8,9.8L62,79h-6c-6.6,0-12,5.4-12,12v11.4c-2.5,2-4.6,4.3-6.5,7L28.9,122H4v4h120v-4H99.1z M58,11V6h12v5   c0,3.3-2.7,6-6,6S58,14.3,58,11z M48,91c0-4.4,3.6-8,8-8h6l0,8h4l0-8h6c4.4,0,8,3.6,8,8v8.7c-4.8-2.8-10.3-4.3-16-4.3   c-5.7,0-11.2,1.5-16,4.3V91z M52.9,122l4.1-10.8l-3.7-1.4L48.6,122H33.8l7.1-10.4c5.3-7.8,13.7-12.3,23.2-12.3s17.9,4.5,23.2,12.3   l7.1,10.4H52.9z" fill="#3EBBC4"/></g></svg>